# xmcd
#
# Track frame offsets: 
#        150
#        12704
#        26073
#        43542
#        55971
#        67364
#        81909
#        93711
#        108096
#        120870
#        135661
#        150596
#        167749
#
# Disc length: 2332 seconds
#
# Revision: 0
# Processed by: cddbd v1.5.2PL0 Copyright (c) Steve Scherf et al.
# Submitted via: ExactAudioCopy v0.99pb3
#
DISCID=ad091a0d
DTITLE=Joana Serrat - Cross the Verge [GateCD]
DYEAR=2016
DGENRE=Alt-Country
TTITLE0=Lonely Heart Reverb
TTITLE1=Saskatoon (Break of Dawn)
TTITLE2=Cloudy Heart [feat. Neil Halstead]
TTITLE3=Flags 
TTITLE4=Desert Valley
TTITLE5=Lover
TTITLE6=Oh, Winter Come
TTITLE7=Tug of War
TTITLE8=I Follow You Child
TTITLE9=Black Lake [feat. Ryan Boldt]
TTITLE10=Solitary Road
TTITLE11=Cross the Verge
TTITLE12=Your Gold Could Be Mine
EXTD=
EXTT0=
EXTT1=
EXTT2=
EXTT3=
EXTT4=
EXTT5=
EXTT6=
EXTT7=
EXTT8=
EXTT9=
EXTT10=
EXTT11=
EXTT12=
PLAYORDER=
